HIERARCHY
ROOT Hips
{
  OFFSET -187.679 86.5976 -156.378
  CHANNELS 6 Xposition Yposition Zposition Zrotation Xrotation Yrotation
  JOINT LeftUpLeg
  {
    OFFSET 8.64259 1.95398 -2.38835
    CHANNELS 3 Zrotation Xrotation Yrotation
    JOINT LeftLeg
    {
      OFFSET 43.7702 0 0
      CHANNELS 3 Zrotation Xrotation Yrotation
      JOINT LeftFoot
      {
        OFFSET 40.6238 0 0
        CHANNELS 3 Zrotation Xrotation Yrotation
        JOINT LeftToeBase
        {
          OFFSET 12.7242 0 0
          CHANNELS 3 Zrotation Xrotation Yrotation
          End Site
          {
            OFFSET 0 0 0
          }
        }
      }
    }
  }
  JOINT RightUpLeg
  {
    OFFSET -8.2249 1.95398 -2.59336
    CHANNELS 3 Zrotation Xrotation Yrotation
    JOINT RightLeg
    {
      OFFSET 43.5653 0 0
      CHANNELS 3 Zrotation Xrotation Yrotation
      JOINT RightFoot
      {
        OFFSET 40.6238 0 0
        CHANNELS 3 Zrotation Xrotation Yrotation
        JOINT RightToeBase
        {
          OFFSET 12.7242 0 0
          CHANNELS 3 Zrotation Xrotation Yrotation
          End Site
          {
            OFFSET 0 0 0
          }
        }
      }
    }
  }
  JOINT Spine
  {
    OFFSET 0.165834 0.87714 6.61349
    CHANNELS 3 Zrotation Xrotation Yrotation
    JOINT Spine1
    {
      OFFSET 7.38963 1.71661e-005 0
      CHANNELS 3 Zrotation Xrotation Yrotation
      JOINT Spine2
      {
        OFFSET 11.9445 1.14441e-005 0
        CHANNELS 3 Zrotation Xrotation Yrotation
        JOINT Spine3
        {
          OFFSET 14.7254 4.19617e-005 0
          CHANNELS 3 Zrotation Xrotation Yrotation
          JOINT Spine4
          {
            OFFSET 10.9679 0 0
            CHANNELS 3 Zrotation Xrotation Yrotation
            JOINT RightShoulder
            {
              OFFSET 2.46616 -1.6653 3.69651
              CHANNELS 3 Zrotation Xrotation Yrotation
              JOINT RightArm
              {
                OFFSET 13.0012 0 0
                CHANNELS 3 Zrotation Xrotation Yrotation
                JOINT RightForeArm
                {
                  OFFSET 28.7848 1.52588e-005 0
                  CHANNELS 3 Zrotation Xrotation Yrotation
                  JOINT RightHand
                  {
                    OFFSET 26.5688 1.52588e-005 0
                    CHANNELS 3 Zrotation Xrotation Yrotation
                    End Site
                    {
                      OFFSET 0 0 0
                    }
                  }
                }
              }
            }
            JOINT LeftShoulder
            {
              OFFSET 2.38034 -1.29275 -3.7523
              CHANNELS 3 Zrotation Xrotation Yrotation
              JOINT LeftArm
              {
                OFFSET 16.3182 6.10352e-005 0
                CHANNELS 3 Zrotation Xrotation Yrotation
                JOINT LeftForeArm
                {
                  OFFSET 27.0901 0 0
                  CHANNELS 3 Zrotation Xrotation Yrotation
                  JOINT LeftHand
                  {
                    OFFSET 24.5451 1.52588e-005 0
                    CHANNELS 3 Zrotation Xrotation Yrotation
                    End Site
                    {
                      OFFSET 0 0 0
                    }
                  }
                }
              }
            }
            JOINT Neck
            {
              OFFSET 5.0226 -0.0266342 0
              CHANNELS 3 Zrotation Xrotation Yrotation
              JOINT Head
              {
                OFFSET 6.69363 2.86102e-005 0
                CHANNELS 3 Zrotation Xrotation Yrotation
                End Site
                {
                  OFFSET 0 0 0
                }
              }
            }
          }
        }
      }
    }
  }
}
MOTION
Frames:	18
Frame Time:	0.0416667
37.2323 96.8119 -326.531 -145.187 -83.1685 -142.385 -170.414 -18.4054 91.229 -25.7088 24.4097 7.08174 85.0522 12.1443 -0.104135 21.0069 -3.75431 1.71316 179.249 18.7203 98.2678 -8.1536 -3.15226 3.69754 47.8181 4.08656 -3.59366 56.395 4.21668 -6.03563 -0.722644 8.02333 -89.9584 10.8292 -1.41961 0.215184 -0.840982 -1.40876 0.277457 -23.3823 -1.41864 -0.2215 -3.36965 -1.41864 -0.221515 82.7615 -53.346 -110.403 27.3183 -17.733 1.53962 -17.1122 -17.7695 -16.0066 -7.00167 0.0461612 -6.21149 -91.1265 -43.6366 75.6863 -16.1666 5.30963 -31.4326 17.8151 4.79861 -31.1889 0.573619 -0.0334199 -2.11413 10.056 0.507189 -13.1704 12.5817 3.79807 2.44239 
36.8636 96.5838 -315.405 -156.337 -83.1213 -152.075 -167.686 -25.2072 95.1635 -23.0001 27.9565 7.80286 75.8466 7.80649 -0.199384 29.1392 0.170956 -0.128006 179.347 23.9684 100.998 -33.2879 5.36809 2.52565 60.3442 0.773268 -1.27409 24.1266 -3.17704 8.25383 -0.840419 7.92609 -90.3277 11.0174 -1.82485 -0.477731 -0.652308 -1.84411 -0.396929 -23.195 -1.59689 -1.0042 -3.18236 -1.5969 -1.00421 84.0062 -52.463 -108.888 28.7052 -17.6063 1.59283 -14.2269 -18.2247 -9.62526 -5.92814 0.0247169 -6.01779 -91.5803 -45.7611 75.5355 -17.7623 13.5611 -27.1684 15.3933 4.69235 -23.6721 -1.04269 -0.0641637 -2.55908 10.7257 1.1511 -9.59375 11.2031 3.4937 1.28699 
36.5292 96.7539 -304.944 -166.154 -81.2641 -160.764 -166.187 -14.0774 100.344 -49.0999 36.661 8.48759 61.048 0.691859 -1.11143 24.8869 -1.064 -1.60684 178.095 19.2188 102.354 -42.7946 6.73311 3.43548 68.1067 -1.87709 -0.557469 20.8105 -3.4573 6.00458 -0.696177 7.97495 -90.5557 10.9173 -1.64308 -0.951509 -0.752891 -1.68336 -0.878264 -23.2907 -1.28115 -1.40133 -3.2781 -1.28116 -1.40133 84.691 -51.6699 -108.134 28.6754 -16.756 0.539828 -15.7957 -18.7094 -12.3559 -4.98245 0.0463435 -6.49386 -91.5914 -45.4218 75.4284 -20.4367 26.2492 -23.3621 8.96025 5.60034 -6.28245 -2.08139 -0.0689616 -1.18196 9.69801 0.889297 -8.08395 10.0627 2.86004 1.76503 
36.1513 98.3116 -296.722 -173.279 -81.0871 -167.902 -169.3 4.87826 100.366 -70.8057 32.3868 8.93463 61.9519 1.74483 2.19242 13.0059 -6.10335 -0.495044 178.33 10.9381 101.84 -39.0335 5.95427 3.58147 71.4219 -3.22793 -1.12203 22.9613 -2.73069 5.29473 -0.372287 8.0375 -90.5411 10.7916 -0.990944 -0.98343 -0.87925 -1.03326 -0.938865 -23.4132 -0.649597 -1.23576 -3.40051 -0.649598 -1.23576 84.7162 -51.3902 -108.185 25.2968 -18.6198 -6.11714 -16.5542 -17.551 -15.2731 -10.1674 -0.150576 -3.726 -91.7365 -46.8026 75.5643 -23.8304 27.451 -13.634 8.0608 5.17806 -4.78831 -3.24474 -0.109733 -0.951711 9.40105 -0.235762 -7.2282 10.5694 1.57323 1.81411 
36.4144 100.422 -288.867 -162.355 -80.7811 -160.688 -173.035 16.8397 93.9383 -66.3303 18.2044 6.06516 68.1376 5.1051 3.33277 9.99699 -7.8873 0.407547 177.377 1.31067 97.4527 -31.161 1.92995 2.20506 72.695 -3.83858 -1.18393 23.9601 -2.69611 5.81469 0.296562 8.00117 -90.0155 10.8718 0.583378 -0.085549 -0.798982 0.579043 -0.111155 -23.3352 0.582115 0.0937474 -3.32254 0.582112 0.0937335 84.5641 -50.9292 -108.558 21.5551 -19.8325 -13.5715 -18.3012 -19.546 -19.1513 -13.1493 -0.526735 -0.353417 -90.811 -46.5589 76.9305 -27.0087 23.3325 0.0379235 11.1041 0.976235 -16.5439 -3.78683 -0.132082 -0.51603 6.52072 -1.32437 -5.54023 11.9588 -0.0721568 1.01849 
37.2511 100.919 -280.945 -144.543 -81.0381 -146.174 -175.867 22.9977 89.327 -44.339 11.0783 3.4626 66.5836 3.48598 -1.61314 12.6297 -6.17475 -0.68978 174.751 -4.39372 92.6363 -26.6275 -4.69409 1.18486 75.3299 -4.72165 -2.12409 23.1311 -2.77219 5.51964 0.89662 7.91247 -89.6316 11.0432 1.95572 0.546082 -0.626345 1.97786 0.459442 -23.1701 1.70116 1.10875 -3.15747 1.70116 1.10874 84.6028 -49.1049 -109.096 16.5552 -22.7003 -21.2307 -20.4639 -19.8721 -23.9982 -11.2108 -0.409105 -0.813391 -89.2651 -46.3233 79.2735 -27.2374 20.6062 7.30094 10.8061 -3.3369 -21.7204 -4.14007 -0.118673 -2.161 6.23904 -1.26662 -0.130791 11.6779 -1.40326 -1.54641 
37.9341 99.6324 -271.693 -144.577 -79.7529 -146.876 -178.505 19.395 87.347 -16.0366 14.0898 3.96244 63.1766 3.07719 0.394399 13.432 -6.90593 1.43271 172.284 -13.5205 88.4951 -23.0799 -7.0009 1.04859 78.2474 -5.95229 -2.40689 26.2647 -2.10128 5.47674 1.14739 8.10254 -89.6551 10.6645 2.44387 0.462879 -1.00419 2.46187 0.354805 -23.5542 2.19172 1.17627 -3.54157 2.19172 1.17627 84.7444 -48.0586 -109.23 8.9099 -24.1133 -29.1529 -23.3668 -20.7635 -28.8806 -11.1448 -0.289501 -2.08948 -90.2964 -48.8001 78.246 -26.0724 16.8659 10.9076 9.61383 -5.98452 -17.855 -4.50706 -0.109538 -2.81062 6.09061 -0.75085 4.34424 12.614 -1.88307 -2.30512 
38.304 97.7572 -260.984 -136.139 -78.5772 -139.936 -179.769 19.8526 85.3303 -14.5163 9.37615 4.3987 61.3453 1.53335 -2.38787 13.5978 -7.12724 2.02711 168.679 -19.5836 83.6589 -23.344 -9.91113 0.338798 79.7969 -7.04428 -2.6371 29.791 -1.51663 5.96564 1.2925 8.09625 -89.44 10.6733 2.83194 0.854475 -0.994738 2.86678 0.728911 -23.5473 2.44416 1.66647 -3.53469 2.44417 1.66646 83.6746 -48.875 -110.581 7.57977 -21.1718 -32.3595 -24.6495 -21.7316 -29.8189 -12.6284 -0.434196 -1.02938 -90.5318 -50.4926 78.2729 -26.6515 15.6051 12.3175 8.42325 -9.61957 -10.9031 -4.396 -0.129974 -1.60661 6.34245 -0.116065 4.8195 13.3832 -1.33375 -1.99415 
38.4159 97.7502 -248.81 -126.208 -77.0123 -131.399 -177.922 20.8397 83.5957 -25.7899 12.3415 3.04302 59.7975 0.0287936 -1.82614 10.2649 -7.3398 -0.395656 166.615 -21.5905 79.4469 -27.066 -11.9678 -2.58199 69.859 -3.92458 -2.77287 37.2274 -0.854704 10.171 1.50558 7.86088 -89.1588 11.1335 3.38739 1.34463 -0.533616 3.44329 1.19409 -23.0897 2.82668 2.30098 -3.077 2.82667 2.30097 83.3225 -49.5972 -110.86 14.1389 -21.7226 -28.1428 -23.6306 -21.6486 -27.9717 -13.0944 -0.454894 -0.989627 -90.366 -51.3181 78.6985 -26.8454 14.2471 10.725 8.78877 -9.28723 -5.46772 -5.75698 -0.152625 -1.95784 6.99131 -0.253969 3.31461 10.4659 -1.13283 -1.92684 
38.4713 98.5675 -236.837 -136.489 -76.6253 -143.372 -176.262 16.1737 80.5403 -36.0086 13.6294 2.00135 68.7803 3.82967 -0.51982 8.3033 -9.148 1.3152 167.46 -15.1495 77.3121 -46.5617 -13.7236 -5.61325 54.5302 0.86388 -0.33681 29.6162 -1.9712 7.94921 1.22047 7.94038 -88.909 10.9664 2.9348 1.8913 -0.702399 3.01518 1.76024 -23.2435 2.2309 2.68583 -3.23089 2.2309 2.68582 83.4344 -49.3754 -110.77 20.9616 -27.3158 -22.5248 -19.2252 -23.1519 -21.8424 -10.5819 -0.0919213 -4.14733 -91.0097 -51.0826 77.7001 -24.8656 13.903 5.83924 9.14616 -8.6568 -6.1752 -6.19097 -0.161874 -1.94248 6.01704 -0.378292 2.48237 10.677 -1.12802 -2.40395 
38.204 99.4579 -228.11 -133.788 -76.2964 -140.405 -176.398 10.3991 79.3885 -36.8689 12.1405 3.53075 73.9435 5.79298 0.259289 9.72563 -8.84436 1.94177 173.438 -0.644919 81.0038 -63.4396 -10.5765 -7.11444 57.7106 -0.504085 0.427926 23.4547 -1.45881 1.85324 0.999408 7.95592 -88.9842 10.9418 2.4598 1.78629 -0.727837 2.53602 1.67627 -23.2646 1.80938 2.44287 -3.252 1.80938 2.44286 83.8273 -49.1184 -110.265 25.4879 -29.7054 -17.8125 -16.1022 -26.8689 -17.221 -7.99152 -0.0585496 -4.23985 -91.7428 -51.2443 76.6642 -18.4124 16.8374 -5.22009 8.89212 -8.04597 -8.28588 -3.38429 -0.107674 -1.5567 5.18152 0.457654 2.87368 10.5584 -0.344957 -2.26303 
37.4759 100.831 -220.061 -138.172 -77.1183 -142.24 -177.112 2.74085 80.354 -33.3971 12.135 7.07354 76.2636 6.18868 -0.42204 11.5289 -8.12731 2.15419 176.288 9.41054 86.3391 -60.0242 2.73438 -4.42919 69.8105 -4.48089 0.860765 24.7638 -1.25664 1.96385 0.490198 8.04349 -89.3231 10.7786 1.28852 1.22688 -0.892199 1.34126 1.16897 -23.4253 0.860272 1.55736 -3.41263 0.860281 1.55735 84.3979 -49.6057 -109.24 28.7591 -25.8744 -11.4563 -16.2299 -22.9536 -16.7392 -9.43377 -0.235713 -2.26955 -91.4448 -49.0396 76.5714 -13.8423 15.7394 -15.7702 9.50552 -7.23049 -14.1347 -3.65723 -0.0983524 -2.70529 4.24636 1.85353 1.59703 10.9834 1.35621 -1.41814 
36.4083 101.229 -211.836 -146.908 -79.114 -148.554 -175.981 -4.56407 83.6367 -29.5255 15.845 7.8926 79.0626 8.08318 -0.25762 12.2603 -8.23854 3.01338 177.138 15.2189 90.8399 -39.7348 8.89515 -0.974548 67.2974 -3.92363 0.0766317 25.4622 -1.69943 3.71914 -0.113556 8.08853 -89.6644 10.6966 -0.0714694 0.67377 -0.97455 -0.0417522 0.676258 -23.5085 -0.270661 0.621142 -3.49583 -0.270662 0.621138 84.0959 -50.0912 -109.531 29.7894 -22.2718 -4.64986 -19.4277 -20.3598 -21.6945 -7.99083 -0.234494 -1.67978 -90.6743 -46.1336 77.0381 -12.0368 11.7953 -24.9098 11.2477 -4.40729 -19.5454 -1.24994 -0.0750025 -2.98877 4.00332 2.80632 -0.313372 11.4218 2.71472 -0.656449 
35.193 100.223 -202.5 -150.896 -80.0307 -152.053 -174.186 -12.3434 86.2234 -25.7074 17.6879 7.58487 82.466 10.1247 -0.548605 12.3977 -7.61977 1.92974 177.345 15.4072 92.0471 -14.7661 5.31844 1.21536 62.8872 -2.28973 -1.68956 24.2185 -2.07361 4.11973 -0.327317 8.15317 -89.7367 10.5684 -0.53084 0.571261 -1.10258 -0.505192 0.594063 -23.638 -0.678001 0.385307 -3.62538 -0.677985 0.385309 84.0399 -51.2241 -109.239 29.682 -19.8037 0.0985734 -20.5864 -19.2376 -23.5032 -7.43559 -0.0830609 -3.94402 -90.9379 -44.8627 76.3071 -9.76749 8.22086 -30.5282 14.0773 -0.179155 -27.6366 1.30256 -0.00240982 -1.57653 4.57709 2.6102 -3.37346 11.3613 3.20245 0.385924 
33.8515 98.1438 -191.8 -162.366 -80.8764 -162.722 -170.739 -19.9969 90.4307 -24.2218 22.163 7.54796 84.4774 11.7994 -0.296204 16.4746 -6.94596 4.59048 178.333 18.0431 93.0668 -14.1648 3.64852 1.35337 62.9977 -1.65825 -0.793102 23.4468 -1.78932 2.8351 -0.540141 8.17552 -89.8142 10.5255 -0.990492 0.457017 -1.14518 -0.969422 0.500165 -23.6833 -1.08205 0.138171 -3.67067 -1.08205 0.13817 83.6903 -52.0395 -109.486 30.5939 -19.1908 1.78094 -17.3015 -19.4601 -16.8627 -7.21491 -0.0474802 -4.53242 -91.5215 -46.2363 75.7519 -10.4096 5.58038 -32.8462 17.676 4.24627 -32.4453 -1.02488 -0.0594666 -1.76797 5.85652 2.03681 -4.75395 10.6088 2.85141 -0.327146 
32.0953 97.1485 -179.833 -169.653 -80.5629 -168.428 -168.177 -24.5216 94.9189 -26.8745 24.4497 8.33322 74.3971 8.06882 1.60475 32.1994 0.326139 2.9663 177.331 20.9971 94.7723 -30.8382 2.94583 2.05394 59.4979 0.623664 -0.4228 20.9489 -1.60148 1.04935 -0.610011 8.0931 -90.0159 10.6884 -1.22209 0.0809585 -0.982024 -1.21734 0.134661 -23.5216 -1.18991 -0.290125 -3.50898 -1.18992 -0.290134 84.1389 -51.4988 -109.004 32.4536 -19.0268 1.92375 -14.1722 -20.3843 -10.3746 -5.65041 0.0128145 -5.82257 -92.2061 -48.3429 75.2501 -9.95745 11.7367 -29.1779 16.0286 3.57261 -28.0072 -1.92938 -0.0770821 -2.31487 5.70724 1.76266 -3.1647 9.28259 2.10246 -2.0461 
30.3903 97.5048 -169.026 -169.278 -79.2908 -165.004 -167.766 -15.5296 99.1085 -49.8146 29.0476 10.4955 60.6416 1.22193 1.3579 16.2023 -4.58944 -0.933404 176.923 16.4597 98.2858 -38.0145 3.43919 3.05875 65.0503 -1.44905 -0.829442 20.6267 -1.91387 1.74088 -0.297755 8.12886 -90.3508 10.6138 -0.754354 -0.629154 -1.0571 -0.78132 -0.595355 -23.592 -0.530402 -0.826782 -3.57939 -0.530404 -0.826784 83.7685 -51.06 -109.695 32.1821 -19.3278 1.37521 -15.7037 -19.8572 -13.5436 -5.06826 0.015713 -5.99503 -92.341 -48.4516 75.076 -13.3018 21.3532 -23.1729 12.2319 4.59889 -15.8097 -3.87967 -0.114377 -2.08706 5.27429 1.50544 -2.49048 8.97291 1.80062 -1.26805 
29.2451 98.6583 -160.374 -177.183 -78.9814 -172.315 -171.373 0.26195 99.0925 -67.4284 29.2861 11.0189 60.4731 0.868157 0.0639885 10.4145 -7.3156 -0.297164 176.962 8.89033 98.9313 -36.6076 4.9569 3.78119 69.4383 -2.78549 -0.595598 22.2306 -1.97991 2.73408 -0.107134 8.28132 -90.3547 10.3111 -0.375683 -0.67196 -1.35998 -0.404883 -0.654787 -23.894 -0.156367 -0.753803 -3.88132 -0.156367 -0.753802 84.2767 -51.1879 -108.901 27.1167 -21.146 -6.15619 -17.2027 -19.9506 -16.9823 -8.01812 -0.0683099 -4.37147 -92.3202 -48.3955 75.0924 -18.7222 25.5627 -15.4304 8.39787 2.12469 -5.9032 -6.22913 -0.156116 -2.07598 4.7831 0.91066 -3.48171 9.77342 1.42157 -0.863051 
